<mxfile host="app.diagrams.net" modified="2023-06-17T17:30:01.089Z" agent="Mozilla/5.0 (Windows NT 6.1; Win64; x64) AppleWebKit/537.36 (KHTML, like Gecko) Chrome/102.0.0.0 Safari/537.36" version="21.3.8" etag="Vx2RKDYwxNBYkAZCpNVF" type="github">
  <diagram name="第 1 页" id="PGNTQEvJD_Di9o772LLD">
    <mxGraphModel>
      <root>
        <mxCell id="0" />
        <mxCell id="1" parent="0" />
      </root>
    </mxGraphModel>
  </diagram>
</mxfile>
